HIERARCHY
ROOT Hips
{
	OFFSET -0.001795 -0.223333 0.028219
	CHANNELS 6 Xposition Yposition Zposition Zrotation Yrotation Xrotation 
	JOINT LeftUpLeg
	{
		OFFSET 0.069520 -0.091406 -0.006815
		CHANNELS 3 Zrotation Yrotation Xrotation
		JOINT LeftLeg
		{
			OFFSET 0.034277 -0.375199 -0.004496
			CHANNELS 3 Zrotation Yrotation Xrotation
			JOINT LeftFoot
			{
				OFFSET -0.013596 -0.397961 -0.043693
				CHANNELS 3 Zrotation Yrotation Xrotation
				JOINT LeftToe
				{
					OFFSET 0.026358 -0.055791 0.119288
					CHANNELS 3 Zrotation Yrotation Xrotation
					End Site
					{
						OFFSET 0.000000 0.000000 0.000000
					}
				}
			}
		}
	}
	JOINT RightUpLeg
	{
		OFFSET -0.067670 -0.090522 -0.004320
		CHANNELS 3 Zrotation Yrotation Xrotation
		JOINT RightLeg
		{
			OFFSET -0.038290 -0.382569 -0.008850
			CHANNELS 3 Zrotation Yrotation Xrotation
			JOINT RightFoot
			{
				OFFSET 0.015774 -0.398415 -0.042312
				CHANNELS 3 Zrotation Yrotation Xrotation
				JOINT RightToe
				{
					OFFSET -0.025372 -0.048144 0.123348
					CHANNELS 3 Zrotation Yrotation Xrotation
					End Site
					{
						OFFSET 0.000000 0.000000 0.000000
					}
				}
			}
		}
	}
	JOINT Spine
	{
		OFFSET -0.002533 0.108963 -0.026696
		CHANNELS 3 Zrotation Yrotation Xrotation
		JOINT Spine1
		{
			OFFSET 0.005487 0.135180 0.001092
			CHANNELS 3 Zrotation Yrotation Xrotation
			JOINT Spine2
			{
				OFFSET 0.001457 0.052922 0.025425
				CHANNELS 3 Zrotation Yrotation Xrotation
				JOINT Neck
				{
					OFFSET -0.002778 0.213870 -0.042857
					CHANNELS 3 Zrotation Yrotation Xrotation
					JOINT Head
					{
						OFFSET 0.005152 0.064970 0.051349
						CHANNELS 3 Zrotation Yrotation Xrotation
						End Site
						{
							OFFSET 0.000000 0.000000 0.000000
						}
					}
				}
				JOINT LeftShoulder
				{
					OFFSET 0.078845 0.121749 -0.034090
					CHANNELS 3 Zrotation Yrotation Xrotation
					JOINT LeftArm
					{
						OFFSET 0.090977 0.030469 -0.008868
						CHANNELS 3 Zrotation Yrotation Xrotation
						JOINT LeftForeArm
						{
							OFFSET 0.259612 -0.012772 -0.027456
							CHANNELS 3 Zrotation Yrotation Xrotation
							JOINT LeftHand
							{
								OFFSET 0.249234 0.008986 -0.001171
								CHANNELS 3 Zrotation Yrotation Xrotation
								End Site
								{
									OFFSET 0.000000 0.000000 0.000000
								}
							}
						}
					}
				}
				JOINT RightShoulder
				{
					OFFSET -0.081759 0.118833 -0.038615
					CHANNELS 3 Zrotation Yrotation Xrotation
					JOINT RightArm
					{
						OFFSET -0.096012 0.032551 -0.009143
						CHANNELS 3 Zrotation Yrotation Xrotation
						JOINT RightForeArm
						{
							OFFSET -0.253742 -0.013329 -0.021401
							CHANNELS 3 Zrotation Yrotation Xrotation
							JOINT RightHand
							{
								OFFSET -0.255298 0.007772 -0.005559
								CHANNELS 3 Zrotation Yrotation Xrotation
								End Site
								{
									OFFSET 0.000000 0.000000 0.000000
								}
							}
						}
					}
				}
			}
		}
	}
}
MOTION
Frames: 8
Frame Time: 0.050000
0.000000 0.874385 0.000000 -0.883993 -5.118086 5.276171 -7.964781 -5.276537 -36.852682 -0.452901 -0.399862 47.982019 3.564537 5.912073 -5.490505 0.000000 0.000000 0.000000 -0.490112 3.261322 -29.512738 31.838106 -17.787160 59.524178 -22.046259 -44.495629 8.892531 0.000000 0.000000 0.000000 -6.376336 1.245402 33.166450 -5.274083 2.625930 2.978060 5.591576 14.495659 2.359862 8.680601 -3.710754 -12.270208 0.000000 0.000000 0.000000 -21.715576 -27.071551 9.331843 -15.899750 -32.500963 1.983193 168.194548 -53.456603 -154.240266 0.000000 0.000000 0.000000 20.720579 54.003694 35.651601 34.039590 55.115986 12.183383 -10.903163 2.433276 -0.043999 0.000000 0.000000 0.000000 
-0.060570 0.878305 0.061001 -2.246047 4.063658 3.152571 -7.255506 -4.943477 -30.183464 4.082113 -5.176884 47.614683 2.340570 -0.121629 -10.346128 0.000000 0.000000 0.000000 -6.338631 1.216014 -33.220371 34.276132 -22.121976 54.020876 -19.944273 -40.003727 9.953569 0.000000 0.000000 0.000000 -4.959259 -0.312772 33.402295 -0.801496 0.405547 -1.017685 6.807912 15.932076 7.672688 4.948201 -1.253190 -10.131096 0.000000 0.000000 0.000000 -20.374333 -20.225678 3.661764 -25.754571 -38.252949 5.027956 -174.677223 -52.112891 167.753829 0.000000 0.000000 0.000000 24.744210 57.967630 42.464633 35.240163 60.957910 14.671633 -12.524479 -8.682236 0.991581 0.000000 0.000000 0.000000 
-0.127522 0.888576 0.129597 -3.091797 8.542047 2.158028 0.825174 -2.641400 -25.552360 0.004238 -3.922784 47.604241 2.930022 -0.036002 -11.842540 0.000000 0.000000 0.000000 -7.744052 0.260862 -32.761427 25.138265 -16.777923 51.520839 -15.047392 -34.706964 0.230194 0.000000 0.000000 0.000000 -3.158163 -1.103971 29.220137 -1.483346 0.911706 -6.543373 9.513827 21.454367 15.901346 5.684283 1.496052 -19.959759 0.000000 0.000000 0.000000 -23.278982 -25.666340 2.835873 -32.600673 -38.126859 7.377677 -162.116433 -52.415960 136.241644 0.000000 0.000000 0.000000 15.811309 55.220856 35.953512 52.426053 64.200081 27.688744 -13.084630 -7.094766 0.864955 0.000000 0.000000 0.000000 
-0.196254 0.889935 0.203927 -6.404970 20.888911 -1.337821 6.366092 -1.896825 -22.013560 -0.385687 -5.889420 43.976647 5.983292 3.126478 -16.009678 0.000000 0.000000 0.000000 -8.536798 -1.179723 -27.047372 19.802144 -14.381415 41.030622 -16.614904 -39.013651 -2.459796 0.000000 0.000000 0.000000 -0.147244 -2.517821 26.215791 -0.804970 0.815294 -5.884234 10.342566 21.461247 13.895288 7.680873 0.401517 -16.564496 0.000000 0.000000 0.000000 -21.055210 -33.020362 3.464656 -47.605655 -32.209662 10.358880 -144.647899 -44.705892 79.240410 0.000000 0.000000 0.000000 32.226405 56.031927 51.770725 36.155890 64.800995 15.149431 -11.430130 -5.485593 0.512829 0.000000 0.000000 0.000000 
-0.265758 0.876518 0.278997 -11.543920 32.569195 -6.422002 13.449846 -1.815595 -20.169164 -7.733855 -4.083129 41.006811 11.597805 8.912509 -26.038680 0.000000 0.000000 0.000000 -7.339497 -1.975473 -24.746348 12.199257 -12.038056 37.783644 -20.803921 -43.496450 3.009666 0.000000 0.000000 0.000000 1.072664 -3.016336 23.446022 -2.023839 1.803144 -10.507099 14.887053 21.215424 16.904694 10.203431 -1.123182 -12.840770 0.000000 0.000000 0.000000 -24.430018 -45.687140 3.541402 -58.062193 -23.011331 11.090279 -130.834187 -41.855290 30.887888 0.000000 0.000000 0.000000 37.822121 52.489509 56.945327 21.821834 68.623038 5.473482 -12.637145 -6.464738 0.573821 0.000000 0.000000 0.000000 
-0.334487 0.851253 0.351923 -18.987672 47.024251 -12.997061 20.349395 -3.646301 -25.430261 -12.493208 -5.685453 45.082007 13.807164 10.168713 -28.492193 0.000000 0.000000 0.000000 -8.747557 -3.507490 -20.467843 4.969516 -9.676177 33.695714 -28.296713 -43.125292 20.475727 0.000000 0.000000 0.000000 -1.139594 -3.352559 23.279914 2.339429 0.940365 -14.171940 13.562235 22.165510 16.666666 17.025209 -5.142812 -13.075799 0.000000 0.000000 0.000000 -25.642435 -54.633959 -0.294862 -65.737404 -11.424452 7.939102 -125.559718 -34.148524 -14.932524 0.000000 0.000000 0.000000 36.684881 48.730701 57.508421 0.023161 69.314920 -9.147815 -18.511383 -4.934515 0.188164 0.000000 0.000000 0.000000 
-0.405345 0.823080 0.422991 -33.371390 62.307119 -25.074711 28.462643 -7.903250 -36.054750 -16.927915 -7.530053 49.272162 16.010667 18.632431 -28.902001 0.000000 0.000000 0.000000 -10.913558 -5.888799 -17.055147 -1.254673 -9.622095 33.375108 -28.356493 -31.291573 36.830290 0.000000 0.000000 0.000000 -1.677724 -4.665473 24.713251 3.045443 1.228284 -15.864900 8.470994 27.045119 14.134652 25.106508 -4.774317 -22.345590 0.000000 0.000000 0.000000 -13.864043 -62.434336 -1.955555 -76.055848 -12.965397 -2.141010 -121.492354 -18.882377 -78.157871 0.000000 0.000000 0.000000 26.137890 36.504578 47.114011 -21.059954 73.602658 -22.280131 -24.683918 -6.899349 -0.081667 0.000000 0.000000 0.000000 
-0.477822 0.800780 0.495388 -58.826205 74.154810 -46.933181 39.830250 -13.238207 -48.545102 -27.099723 -4.914912 49.029656 16.263453 31.975648 -22.281031 0.000000 0.000000 0.000000 -16.585700 -10.588449 -13.558009 -2.767348 -11.001640 32.027639 -19.734931 -17.905965 43.288893 0.000000 0.000000 0.000000 -2.004502 -6.042584 26.065485 -1.217670 2.339834 -20.346674 9.582723 25.951890 16.638875 26.077765 -3.394077 -24.307285 0.000000 0.000000 0.000000 -15.103727 -51.970154 -12.639776 -73.320845 0.363531 -2.708700 -133.739230 -2.158169 -121.489810 0.000000 0.000000 0.000000 12.820196 29.935645 34.242960 -11.633477 78.443081 -8.852841 -34.620055 -9.563185 -0.190415 0.000000 0.000000 0.000000 
